<svg id="Main_Head" data-name="Main Head" xmlns="http://www.w3.org/2000/svg" width="1366" height="64" viewBox="0 0 1366 64">
  <g id="UI_Kit_header" data-name="UI Kit header">
    <g id="Head">
      <rect id="Rectangle_112" data-name="Rectangle 112" width="1366" height="64" fill="#0e5c8c"/>
    </g>
  </g>
  <g id="NEWS" transform="translate(397.857 23)">
    <text id="NEWS-2" data-name="NEWS" transform="translate(0 14)" fill="#fff" font-size="14" font-family="SourceSansPro-Bold, Source Sans Pro" font-weight="700"><tspan x="0" y="0">NEWS</tspan></text>
  </g>
  <g id="BUSINESSES" transform="translate(552.625 23)">
    <text id="BUSINESS" transform="translate(0 14)" fill="#fff" font-size="14" font-family="SourceSansPro-Bold, Source Sans Pro" font-weight="700"><tspan x="0" y="0">BUSINESS</tspan></text>
  </g>
  <g id="TRAVELLERS" transform="translate(728.654 23)">
    <g id="Group_1423" data-name="Group 1423" transform="translate(0 3)">
      <text id="TRAVELERS" transform="translate(0 11)" fill="#fff" font-size="14" font-family="SourceSansPro-Bold, Source Sans Pro" font-weight="700"><tspan x="0" y="0">TRAVELERS</tspan></text>
    </g>
  </g>
  <g id="PUBLIC" transform="translate(923.063 23)">
    <g id="Component_132_1" data-name="Component 132 – 1">
      <text id="PUBLIC-2" data-name="PUBLIC" transform="translate(0 14)" fill="#fff" font-size="14" font-family="SourceSansPro-Bold, Source Sans Pro" font-weight="700"><tspan x="0" y="0">PUBLIC</tspan></text>
    </g>
  </g>
  <g id="Icon_map-local-government" data-name="Icon map-local-government" transform="translate(133.124 15.22)">
    <path id="Icon_map-local-government-2" data-name="Icon map-local-government" d="M33.12,20.88v14.4H22.32V32.4H12.96v2.88H2.88V20.88ZM26.6,18.256a8.259,8.259,0,0,0-2.815-4.609c-1.423-1.183-3.108-1.407-5.061-2.127H18.72V6.964l.377-.1.826-.306a7.936,7.936,0,0,1,.9-.261,2.962,2.962,0,0,1,.637-.1,4.932,4.932,0,0,1,1.017.131c.409.1.845.207,1.287.328.462.14.873.246,1.273.336a4.367,4.367,0,0,0,.964.123,6.966,6.966,0,0,0,1.354-.186V1.714A4.932,4.932,0,0,1,26,1.98a4.037,4.037,0,0,1-.973-.137c-.4-.076-.809-.2-1.27-.329q-.617-.185-1.248-.321a3.835,3.835,0,0,0-.922-.138,6.738,6.738,0,0,0-2.873.616V.72H17.28v10.8h-.045c-1.938.72-3.635.985-5.057,2.168A8.339,8.339,0,0,0,9.357,18.2a1.171,1.171,0,0,0-1.38,1.244H28.115c0-1.44-1.512-1.184-1.512-1.184Z" transform="translate(-2.88 -0.72)" fill="#0e5c8c" stroke="#fff" stroke-width="1"/>
  </g>
  <g id="Humburger_Menu" data-name="Humburger Menu" transform="translate(15 26)">
    <path id="bars" d="M.634,62.338H17.128a.586.586,0,0,0,.634-.519v-1.3A.586.586,0,0,0,17.128,60H.634A.586.586,0,0,0,0,60.519v1.3A.586.586,0,0,0,.634,62.338Zm0,5.195H17.128a.586.586,0,0,0,.634-.519v-1.3a.586.586,0,0,0-.634-.519H.634A.586.586,0,0,0,0,65.714v1.3A.586.586,0,0,0,.634,67.533Zm0,5.195H17.128a.586.586,0,0,0,.634-.519v-1.3a.586.586,0,0,0-.634-.519H.634A.586.586,0,0,0,0,70.909v1.3A.586.586,0,0,0,.634,72.728Z" transform="translate(0 -60)" fill="#fff"/>
  </g>
  <rect id="Rectangle_1503" data-name="Rectangle 1503" width="224" height="32" rx="16" transform="translate(1019 18)" fill="#fff"/>
  <g id="Search" transform="translate(1029 26)">
    <path id="Path_2" data-name="Path 2" d="M2,7A4.951,4.951,0,0,1,7,2a4.951,4.951,0,0,1,5,5,4.951,4.951,0,0,1-5,5A4.951,4.951,0,0,1,2,7Zm12.3,8.7a.99.99,0,0,0,1.4-1.4l-3.1-3.1A6.847,6.847,0,0,0,14,7,6.957,6.957,0,0,0,7,0,6.957,6.957,0,0,0,0,7a6.957,6.957,0,0,0,7,7,6.847,6.847,0,0,0,4.2-1.4Z" fill="#306f9d"/>
  </g>
  <g id="Component_136_1" data-name="Component 136 – 1" transform="translate(1258 15)">
    <g id="Component_99_5" data-name="Component 99 – 5">
      <g id="Normal_Button" data-name="Normal Button">
        <rect id="Rectangle_451" data-name="Rectangle 451" width="94" height="38" rx="4" fill="#306f9d"/>
      </g>
    </g>
    <g id="Component_1" data-name="Component 1" transform="translate(30 10)">
      <g id="Component_133_1" data-name="Component 133 – 1" transform="translate(-2)">
        <text id="SEARCH-2" data-name="SEARCH" transform="translate(39 11)" fill="#fff" font-size="11" font-family="SourceSansPro-Bold, Source Sans Pro" font-weight="700"><tspan x="-39.006" y="0">SEARCH</tspan></text>
      </g>
    </g>
  </g>
</svg>
