<svg xmlns="http://www.w3.org/2000/svg" width="1929" height="791.003" viewBox="0 0 1929 791.003">
  <g id="Group_229" data-name="Group 229" transform="translate(-13558 -2370)">
    <g id="Group_227" data-name="Group 227" transform="translate(0 295.304)">
      <g id="Group_191" data-name="Group 191" transform="translate(13558 2075)">
        <g id="Group_171" data-name="Group 171">
          <g id="Group_147" data-name="Group 147">
            <rect id="Rectangle_6" data-name="Rectangle 6" width="1929" height="791" transform="translate(0 -0.304)" fill="#fff"/>
            <path id="Path_192" data-name="Path 192" d="M0,782.243" transform="translate(1333.027 8.456)" fill="none" stroke="#768760" stroke-width="4"/>
          </g>
        </g>
      </g>
    </g>
    <g id="Group_193" data-name="Group 193" transform="translate(4023 312)">
      <path id="Path_8" data-name="Path 8" d="M0,0H121.906V119.468c-69.839,9.186-121.906,0-121.906,0Z" transform="translate(9611 2417.822)" fill="#5efdf0"/>
      <text id="Research_and_book_amenities_available_around_my_lodging_" data-name="Research and 
book amenities 
available around 
my lodging  " transform="translate(9611 2450)" font-size="15" font-family="HelveticaNeue-Bold, Helvetica Neue" font-weight="700"><tspan x="0" y="0">Research and </tspan><tspan x="0" y="13">book amenities </tspan><tspan x="0" y="26">available around </tspan><tspan x="0" y="39" xml:space="preserve">my lodging  </tspan></text>
    </g>
    <g id="Group_194" data-name="Group 194" transform="translate(4017 512)">
      <path id="Path_8-2" data-name="Path 8" d="M0,0H121.906V119.468c-69.839,9.186-121.906,0-121.906,0Z" transform="translate(9611 2417.822)" fill="#5efdf0"/>
      <path id="Path_26" data-name="Path 26" d="M0,0H121.906V119.468c-69.839,9.186-121.906,0-121.906,0Z" transform="translate(9611 2417.822)" fill="#5efdf0"/>
      <path id="Path_27" data-name="Path 27" d="M0,0H121.906V119.468c-69.839,9.186-121.906,0-121.906,0Z" transform="translate(9611 2417.822)" fill="#5efdf0"/>
      <text id="Feel_reassured_my_financial_and_personal_information_is_going_through_a_trusted_source" data-name="Feel reassured
 my financial 
and personal
 information is 
going through 
a trusted source" transform="translate(9617 2455)" font-size="14" font-family="HelveticaNeue-Bold, Helvetica Neue" font-weight="700"><tspan x="0" y="0">Feel reassured</tspan><tspan x="0" y="12" xml:space="preserve"> my financial </tspan><tspan x="0" y="24">and personal</tspan><tspan x="0" y="36" xml:space="preserve"> information is </tspan><tspan x="0" y="48">going through </tspan><tspan x="0" y="60">a trusted source</tspan></text>
      <text id="Feel_reassured_my_financial_and_personal_information_is_going_through_a_trusted_source-2" data-name="Feel reassured
 my financial 
and personal
 information is 
going through 
a trusted source" transform="translate(9617 2455)" font-size="14" font-family="HelveticaNeue-Bold, Helvetica Neue" font-weight="700"><tspan x="0" y="0">Feel reassured</tspan><tspan x="0" y="12" xml:space="preserve"> my financial </tspan><tspan x="0" y="24">and personal</tspan><tspan x="0" y="36" xml:space="preserve"> information is </tspan><tspan x="0" y="48">going through </tspan><tspan x="0" y="60">a trusted source</tspan></text>
      <path id="Path_28" data-name="Path 28" d="M0,0H121.906V119.468c-69.839,9.186-121.906,0-121.906,0Z" transform="translate(9617 2417.822)" fill="#5efdf0"/>
      <text id="Feel_reassured_my_financial_and_personal_information_is_going_through_a_trusted_source-3" data-name="Feel reassured
 my financial 
and personal
 information is 
going through 
a trusted source" transform="translate(9623 2455)" font-size="14" font-family="HelveticaNeue-Bold, Helvetica Neue" font-weight="700"><tspan x="0" y="0">Feel reassured</tspan><tspan x="0" y="12" xml:space="preserve"> my financial </tspan><tspan x="0" y="24">and personal</tspan><tspan x="0" y="36" xml:space="preserve"> information is </tspan><tspan x="0" y="48">going through </tspan><tspan x="0" y="60">a trusted source</tspan></text>
    </g>
    <g id="Group_196" data-name="Group 196" transform="translate(4185 310)">
      <path id="Path_8-3" data-name="Path 8" d="M0,0H121.906V119.468c-69.839,9.186-121.906,0-121.906,0Z" transform="translate(9611 2417.822)" fill="#5efdf0"/>
      <text id="Exclusive_pricing_offered_when_booking_through_Pine_Cone" data-name="Exclusive 
pricing offered 
when booking 
through Pine 
Cone" transform="translate(9614 2448)" font-size="16" font-family="HelveticaNeue-Bold, Helvetica Neue" font-weight="700"><tspan x="0" y="0">Exclusive </tspan><tspan x="0" y="14">pricing offered </tspan><tspan x="0" y="28">when booking </tspan><tspan x="0" y="42">through Pine </tspan><tspan x="0" y="56">Cone</tspan></text>
    </g>
    <g id="Group_197" data-name="Group 197" transform="translate(4660 144)">
      <path id="Path_8-4" data-name="Path 8" d="M0,0H121.906V119.468c-69.839,9.186-121.906,0-121.906,0Z" transform="translate(9611 2417.822)" fill="#6fabde"/>
      <text id="I_wish_I_could_see_sample_trips_others_took_who_live_in_my_area" data-name="I   wish I could 
see sample trips 
others took who 
live in my area" transform="translate(9623 2447)" font-size="12" font-family="HelveticaNeue-Bold, Helvetica Neue" font-weight="700"><tspan x="0" y="0" xml:space="preserve">I   wish I could </tspan><tspan x="0" y="12">see sample trips </tspan><tspan x="0" y="24">others took who </tspan><tspan x="0" y="36">live in my area</tspan></text>
    </g>
    <g id="Group_198" data-name="Group 198" transform="translate(4023 148)">
      <path id="Path_8-5" data-name="Path 8" d="M0,0H121.906V119.468c-69.839,9.186-121.906,0-121.906,0Z" transform="translate(9611 2417.822)" fill="#5efdf0"/>
      <text id="A_lot_of_Information_In_one_space_" data-name="A lot of 
Information 
In one space " transform="translate(9625 2449)" font-size="16" font-family="HelveticaNeue-Bold, Helvetica Neue" font-weight="700"><tspan x="0" y="0">A lot of </tspan><tspan x="0" y="14">Information </tspan><tspan x="0" y="28">In one space </tspan></text>
    </g>
    <g id="Group_199" data-name="Group 199" transform="translate(4185 150)">
      <path id="Path_8-6" data-name="Path 8" d="M0,0H121.906V119.468c-69.839,9.186-121.906,0-121.906,0Z" transform="translate(9611 2417.822)" fill="#5efdf0"/>
      <text id="Discover_New_Camping_Options_" data-name="Discover 
New 
Camping 
Options " transform="translate(9631 2447)" font-size="14" font-family="HelveticaNeue-Bold, Helvetica Neue" font-weight="700"><tspan x="0" y="0">Discover </tspan><tspan x="0" y="12">New </tspan><tspan x="0" y="24">Camping </tspan><tspan x="0" y="36">Options </tspan></text>
    </g>
    <g id="Group_200" data-name="Group 200" transform="translate(4338 150)">
      <g id="Group_190" data-name="Group 190">
        <path id="Path_8-7" data-name="Path 8" d="M0,0H121.906V119.468c-69.839,9.186-121.906,0-121.906,0Z" transform="translate(9611 2417.822)" fill="#5efdf0"/>
        <text id="I_Like_to_spend_my_time_with_family" data-name="I Like
to spend 
my time
with
family" transform="translate(9624 2449)" font-size="16" font-family="HelveticaNeue-Bold, Helvetica Neue" font-weight="700"><tspan x="0" y="0">I Like</tspan><tspan x="0" y="14">to spend </tspan><tspan x="0" y="28">my time</tspan><tspan x="0" y="42">with</tspan><tspan x="0" y="56">family</tspan></text>
      </g>
    </g>
    <g id="Group_202" data-name="Group 202" transform="translate(4338 310)">
      <g id="Group_186" data-name="Group 186">
        <path id="Path_8-8" data-name="Path 8" d="M0,0H121.906V119.468c-69.839,9.186-121.906,0-121.906,0Z" transform="translate(9611 2417.822)" fill="#5efdf0"/>
        <text id="I_like_to_feel_satisfied_when_everything_are_planned_and_organised" data-name="I like to feel
satisfied 
when 
everything
are planned 
and organised" transform="translate(9631 2447)" font-size="14" font-family="HelveticaNeue-Bold, Helvetica Neue" font-weight="700"><tspan x="0" y="0">I like to feel</tspan><tspan x="0" y="12">satisfied </tspan><tspan x="0" y="24">when </tspan><tspan x="0" y="36">everything</tspan><tspan x="0" y="48">are planned </tspan><tspan x="0" y="60">and organised</tspan></text>
      </g>
    </g>
    <g id="Group_204" data-name="Group 204" transform="translate(4349 512)">
      <path id="Path_8-9" data-name="Path 8" d="M0,0H121.906V119.468c-69.839,9.186-121.906,0-121.906,0Z" transform="translate(9611 2417.822)" fill="#5efdf0"/>
      <path id="Path_29" data-name="Path 29" d="M0,0H121.906V119.468c-69.839,9.186-121.906,0-121.906,0Z" transform="translate(9611 2417.822)" fill="#5efdf0"/>
      <text id="I_like_to_to_maintain_social_distance" data-name="I like to to maintain social distance" transform="translate(9621 2441)" fill="#0f0e0e" font-size="18" font-family="HelveticaNeue-Bold, Helvetica Neue" font-weight="700"><tspan x="13.529" y="18">I like to to </tspan><tspan x="19.028" y="36">maintain </tspan><tspan x="30.692" y="54">social </tspan><tspan x="19.343" y="72">distance</tspan></text>
      <text id="I_like_to_to_maintain_social_distance-2" data-name="I like to to maintain social distance" transform="translate(9621 2441)" fill="#0f0e0e" font-size="18" font-family="HelveticaNeue-Bold, Helvetica Neue" font-weight="700"><tspan x="13.529" y="18">I like to to </tspan><tspan x="19.028" y="36">maintain </tspan><tspan x="30.692" y="54">social </tspan><tspan x="19.343" y="72">distance</tspan></text>
      <path id="Path_30" data-name="Path 30" d="M0,0H121.906V119.468c-69.839,9.186-121.906,0-121.906,0Z" transform="translate(9611 2418.822)" fill="#5efdf0"/>
      <text id="I_like_to_find_hidden_gems_places" data-name="I like to find hidden gems
places" transform="translate(9616 2441)" fill="#0f0e0e" font-size="18" font-family="HelveticaNeue-Bold, Helvetica Neue" font-weight="700"><tspan x="5.861" y="18">I like to find </tspan><tspan x="0.686" y="36">hidden gems</tspan><tspan x="27.848" y="54">places</tspan></text>
    </g>
    <path id="Path_42" data-name="Path 42" d="M0,0H121.906V119.468c-69.839,9.186-121.906,0-121.906,0Z" transform="translate(15009 2588.822)" fill="#e884d5"/>
    <path id="Path_43" data-name="Path 43" d="M0,0H121.906V119.468c-69.839,9.186-121.906,0-121.906,0Z" transform="translate(15009 2906.822)" fill="#e884d5"/>
    <path id="Path_73" data-name="Path 73" d="M0,0H121.906V119.468c-69.839,9.186-121.906,0-121.906,0Z" transform="translate(15009 3035.822)" fill="#e884d5"/>
    <path id="Path_44" data-name="Path 44" d="M0,0H121.906V119.468c-69.839,9.186-121.906,0-121.906,0Z" transform="translate(15154 2742.822)" fill="#e884d5"/>
    <path id="Path_45" data-name="Path 45" d="M0,0H121.906V119.468c-69.839,9.186-121.906,0-121.906,0Z" transform="translate(15154 2901.822)" fill="#e884d5"/>
    <path id="Path_72" data-name="Path 72" d="M0,0H121.906V119.468c-69.839,9.186-121.906,0-121.906,0Z" transform="translate(15154 3030.822)" fill="#e884d5"/>
    <path id="Path_46" data-name="Path 46" d="M0,0H121.906V119.468c-69.839,9.186-121.906,0-121.906,0Z" transform="translate(15299 2578.822)" fill="#e884d5"/>
    <path id="Path_47" data-name="Path 47" d="M0,0H121.906V119.468c-69.839,9.186-121.906,0-121.906,0Z" transform="translate(15299 2896.822)" fill="#e884d5"/>
    <path id="Path_74" data-name="Path 74" d="M0,0H121.906V119.468c-69.839,9.186-121.906,0-121.906,0Z" transform="translate(15299 3025.822)" fill="#e884d5"/>
    <text id="RV_Delivery_" data-name="RV 
Delivery " transform="translate(15065 2624)" font-size="18" font-family="HelveticaNeue-Bold, Helvetica Neue" font-weight="700"><tspan x="-14.508" y="0">RV </tspan><tspan x="-36.999" y="18">Delivery </tspan></text>
    <text id="What_if_I_could_book_A_trip_with_Celebrity" data-name="What if
I could book
A trip with
Celebrity" transform="translate(15065 2942)" font-size="18" font-family="HelveticaNeue-Bold, Helvetica Neue" font-weight="700"><tspan x="-29.988" y="0">What if</tspan><tspan x="-53.145" y="18">I could book</tspan><tspan x="-43.812" y="36">A trip with</tspan><tspan x="-38.484" y="54">Celebrity</tspan></text>
    <text id="Amazon_suggestions_Discount_On_Camping_Supplies_" data-name="Amazon
suggestions/ 
Discount 
On 
Camping
Supplies " transform="translate(15071 3061)" font-size="18" font-family="HelveticaNeue-Bold, Helvetica Neue" font-weight="700"><tspan x="-34.992" y="0">Amazon</tspan><tspan x="-58.167" y="18">suggestions/ </tspan><tspan x="-40.833" y="36">Discount </tspan><tspan x="-14.841" y="54">On </tspan><tspan x="-38.646" y="72">Camping</tspan><tspan x="-39.321" y="90">Supplies </tspan></text>
    <g id="Group_206" data-name="Group 206" transform="translate(5406 171)">
      <g id="Group_180" data-name="Group 180">
        <path id="Path_33" data-name="Path 33" d="M0,0H121.906V119.468c-69.839,9.186-121.906,0-121.906,0Z" transform="translate(9756 2412.822)" fill="#e884d5"/>
      </g>
      <text id="What_if_I_could_Have_a_Pocket_Barista" data-name="What if
I could
Have a
Pocket
Barista" transform="translate(9809 2445)" font-size="20" font-family="HelveticaNeue-Bold, Helvetica Neue" font-weight="700"><tspan x="-33.32" y="0">What if</tspan><tspan x="-32.2" y="20">I could</tspan><tspan x="-32.61" y="40">Have a</tspan><tspan x="-33.52" y="60">Pocket</tspan><tspan x="-33.88" y="80">Barista</tspan></text>
    </g>
    <text id="There_Ia_McDonald_s_In_a_middle_Of_a_forest_" data-name="There 
Ia 
McDonald`s
In a middle 
Of a forest " transform="translate(15210 2778)" font-size="18" font-family="HelveticaNeue-Bold, Helvetica Neue" font-weight="700"><tspan x="-27.009" y="0">There </tspan><tspan x="-10.323" y="18">Ia </tspan><tspan x="-50.985" y="36">McDonald`s</tspan><tspan x="-49.626" y="54">In a middle </tspan><tspan x="-47.673" y="72">Of a forest </tspan></text>
    <text id="Unlimited_Credit_card" data-name="Unlimited
Credit card" transform="translate(15360 2624)" font-size="18" font-family="HelveticaNeue-Bold, Helvetica Neue" font-weight="700"><tspan x="-40.959" y="0">Unlimited</tspan><tspan x="-47.835" y="18">Credit card</tspan></text>
    <text id="What_if_I_could_prevent_forests_from_fire" data-name="What if 
I could 
prevent 
forests 
from fire" transform="translate(15355 2932)" font-size="18" font-family="HelveticaNeue-Bold, Helvetica Neue" font-weight="700"><tspan x="-32.49" y="0">What if </tspan><tspan x="-31.482" y="18">I could </tspan><tspan x="-34.857" y="36">prevent </tspan><tspan x="-32.337" y="54">forests </tspan><tspan x="-36.495" y="72">from fire</tspan></text>
    <text id="Coffee_Delivery_to_Camp_site_" data-name="Coffee 
Delivery to 
Camp site " transform="translate(15355 3061)" font-size="18" font-family="HelveticaNeue-Bold, Helvetica Neue" font-weight="700"><tspan x="-30.726" y="0">Coffee </tspan><tspan x="-48.168" y="18">Delivery to </tspan><tspan x="-45.981" y="36">Camp site </tspan></text>
    <g id="Group_208" data-name="Group 208" transform="translate(4660 310)">
      <path id="Path_8-10" data-name="Path 8" d="M0,0H121.906V119.468c-69.839,9.186-121.906,0-121.906,0Z" transform="translate(9611 2417.822)" fill="#6fabde"/>
      <text id="_A_place_for_previous_travelers_to_post_their_pictures_so_I_could_view_them_alongside_the_official_pics_" data-name=" A place for 
 previous travelers
 to post their pictures
 so I  could view them
 alongside the official 
 pics  " transform="translate(9619 2446)" font-size="10" font-family="HelveticaNeue-Bold, Helvetica Neue" font-weight="700"><tspan x="0" y="0" xml:space="preserve"> A place for </tspan><tspan x="0" y="10" xml:space="preserve"> previous travelers</tspan><tspan x="0" y="20" xml:space="preserve"> to post their pictures</tspan><tspan x="0" y="30" xml:space="preserve"> so I  could view them</tspan><tspan x="0" y="40" xml:space="preserve"> alongside the official </tspan><tspan x="0" y="50" xml:space="preserve"> pics  </tspan></text>
    </g>
    <g id="Group_209" data-name="Group 209" transform="translate(4964 308)">
      <path id="Path_8-11" data-name="Path 8" d="M0,0H121.906V119.468c-69.839,9.186-121.906,0-121.906,0Z" transform="translate(9660 2429.822)" fill="#6fabde"/>
      <text id="Group_bookings_so_all_can_collaborate_and_coordinate_" data-name="Group bookings
 so all can 
collaborate 
and coordinate " transform="translate(9675 2466)" font-size="12" font-family="HelveticaNeue-Bold, Helvetica Neue" font-weight="700"><tspan x="0" y="0">Group bookings</tspan><tspan x="0" y="12" xml:space="preserve"> so all can </tspan><tspan x="0" y="24">collaborate </tspan><tspan x="0" y="36">and coordinate </tspan></text>
    </g>
    <g id="Group_210" data-name="Group 210" transform="translate(4660 506)">
      <path id="Path_8-12" data-name="Path 8" d="M0,0H121.906V119.468c-69.839,9.186-121.906,0-121.906,0Z" transform="translate(9611 2417.822)" fill="#6fabde"/>
      <text id="Have_a_Pin_board_in_AP_so_group_traveling_can_log_in_pin_their_ideas_the_group_vacation_brainstorm_" data-name="Have a Pin board
 in AP so group
 traveling can log
 in, pin their ideas
 the group vacation 
brainstorm   " transform="translate(9619 2447)" font-size="12" font-family="HelveticaNeue-Bold, Helvetica Neue" font-weight="700"><tspan x="0" y="0">Have a Pin board</tspan><tspan x="0" y="12" xml:space="preserve"> in AP so group</tspan><tspan x="0" y="24" xml:space="preserve"> traveling can log</tspan><tspan x="0" y="36" xml:space="preserve"> in, pin their ideas</tspan><tspan x="0" y="48" xml:space="preserve"> the group vacation </tspan><tspan x="0" y="60" xml:space="preserve">brainstorm   </tspan></text>
      <path id="Path_9" data-name="Path 9" d="M0,0H121.906V119.468c-69.839,9.186-121.906,0-121.906,0Z" transform="translate(9611 2417.822)" fill="#6fabde"/>
      <text id="Have_a_Pin_board_in_AP_so_group_traveling_can_log_in_pin_their_ideas_the_group_vacation_brainstorm_2" data-name="Have a Pin board
 in AP so group
 traveling can log
 in, pin their ideas
 the group vacation 
brainstorm   " transform="translate(9619 2447)" font-size="12" font-family="HelveticaNeue-Bold, Helvetica Neue" font-weight="700"><tspan x="0" y="0">Have a Pin board</tspan><tspan x="0" y="12" xml:space="preserve"> in AP so group</tspan><tspan x="0" y="24" xml:space="preserve"> traveling can log</tspan><tspan x="0" y="36" xml:space="preserve"> in, pin their ideas</tspan><tspan x="0" y="48" xml:space="preserve"> the group vacation </tspan><tspan x="0" y="60" xml:space="preserve">brainstorm   </tspan></text>
      <path id="Path_10" data-name="Path 10" d="M0,0H121.906V119.468c-69.839,9.186-121.906,0-121.906,0Z" transform="translate(9611 2417.822)" fill="#6fabde"/>
      <text id="Have_a_Pin_board_in_AP_so_group_traveling_can_log_in_pin_their_ideas_the_group_vacation_brainstorm_3" data-name="Have a Pin board
 in AP so group
 traveling can log
 in, pin their ideas
 the group vacation 
brainstorm   " transform="translate(9619 2447)" font-size="12" font-family="HelveticaNeue-Bold, Helvetica Neue" font-weight="700"><tspan x="0" y="0">Have a Pin board</tspan><tspan x="0" y="12" xml:space="preserve"> in AP so group</tspan><tspan x="0" y="24" xml:space="preserve"> traveling can log</tspan><tspan x="0" y="36" xml:space="preserve"> in, pin their ideas</tspan><tspan x="0" y="48" xml:space="preserve"> the group vacation </tspan><tspan x="0" y="60" xml:space="preserve">brainstorm   </tspan></text>
    </g>
    <g id="Group_211" data-name="Group 211" transform="translate(4964 448)">
      <path id="Path_8-13" data-name="Path 8" d="M0,0H121.906V119.468c-69.839,9.186-121.906,0-121.906,0Z" transform="translate(9662 2472.822)" fill="#6fabde"/>
      <text id="Vacation_packages_Canoe_excursion_Backpacking_in_Mountains_" data-name="Vacation packages

Canoe excursion

Backpacking in 
Mountains " transform="translate(9667 2502)" font-size="12" font-family="HelveticaNeue-Bold, Helvetica Neue" font-weight="700"><tspan x="0" y="0">Vacation packages</tspan><tspan x="0" y="12"></tspan><tspan x="0" y="24">Canoe excursion</tspan><tspan x="0" y="36"></tspan><tspan x="0" y="48">Backpacking in </tspan><tspan x="0" y="60">Mountains </tspan></text>
    </g>
    <g id="Group_212" data-name="Group 212" transform="translate(4169 -10)">
      <path id="Path_8-14" data-name="Path 8" d="M0,0H121.906V119.468c-69.839,9.186-121.906,0-121.906,0Z" transform="translate(9611 2417.822)" fill="#5efdf0"/>
      <text id="I_Like_" data-name="I  Like …" transform="translate(9621 2459)" font-size="25" font-family="HelveticaNeue-Bold, Helvetica Neue" font-weight="700"><tspan x="0" y="0" xml:space="preserve">I  Like …</tspan></text>
    </g>
    <g id="Group_213" data-name="Group 213" transform="translate(4842 -10)">
      <path id="Path_8-15" data-name="Path 8" d="M0,0H121.906V119.468c-69.839,9.186-121.906,0-121.906,0Z" transform="translate(9611 2417.822)" fill="#6fabde"/>
    </g>
    <g id="Group_214" data-name="Group 214" transform="translate(5541 -10)">
      <path id="Path_8-16" data-name="Path 8" d="M0,0H121.906V119.468c-69.839,9.186-121.906,0-121.906,0Z" transform="translate(9611 2417.822)" fill="#e884d5"/>
    </g>
    <text id="I_Wish_" data-name="I  Wish …" transform="translate(14456 2451)" font-size="27" font-family="HelveticaNeue-Bold, Helvetica Neue" font-weight="700"><tspan x="0" y="0" xml:space="preserve">I  Wish …</tspan></text>
    <text id="What_If_" data-name="What If …" transform="translate(15154 2447)" font-size="26" font-family="HelveticaNeue-Bold, Helvetica Neue" font-weight="700"><tspan x="0" y="0">What If …</tspan></text>
    <path id="Path_50" data-name="Path 50" d="M0,0H121.906V119.468c-69.839,9.186-121.906,0-121.906,0Z" transform="translate(14625 2561.822)" fill="#6fabde"/>
    <path id="Path_51" data-name="Path 51" d="M0,0H121.906V119.468c-69.839,9.186-121.906,0-121.906,0Z" transform="translate(14453 2923.822)" fill="#6fabde"/>
    <text id="ECO_friendly_vacation_itinerary_" data-name="ECO friendly 
vacation itinerary " transform="translate(14635 2591)" font-size="12" font-family="HelveticaNeue-Bold, Helvetica Neue" font-weight="700"><tspan x="0" y="0">ECO friendly </tspan><tspan x="0" y="12">vacation itinerary </tspan></text>
    <g id="Group_215" data-name="Group 215" transform="translate(8353 -2113)">
      <path id="Path_22" data-name="Path 22" d="M0,0H121.906V119.468c-69.839,9.186-121.906,0-121.906,0Z" transform="translate(6100 4674.822)" fill="#6fabde"/>
      <text id="I_wish_I_could_book_a_Tree_house_" data-name="I wish
I could book
a Tree house  " transform="translate(6103 4708)" font-size="18" font-family="HelveticaNeue-Bold, Helvetica Neue" font-weight="700"><tspan x="0" y="0">I wish</tspan><tspan x="0" y="18">I could book</tspan><tspan x="0" y="36" xml:space="preserve">a Tree house  </tspan></text>
    </g>
    <text id="I_wish_I_could_see_trusted_previous_users_reviews" data-name="I wish I could
see trusted 
previous
users reviews" transform="translate(14456 2952)" font-size="18" font-family="HelveticaNeue-Bold, Helvetica Neue" font-weight="700"><tspan x="0" y="0">I wish I could</tspan><tspan x="0" y="18">see trusted </tspan><tspan x="0" y="36">previous</tspan><tspan x="0" y="54">users reviews</tspan></text>
    <g id="Group_218" data-name="Group 218" transform="translate(4176 512)">
      <path id="Path_8-17" data-name="Path 8" d="M0,0H121.906V119.468c-69.839,9.186-121.906,0-121.906,0Z" transform="translate(9611 2417.822)" fill="#5efdf0"/>
      <text id="Gas_groceries_listed_near_by_" data-name="Gas/ 
groceries listed 
near by " transform="translate(9618 2451)" font-size="15" font-family="HelveticaNeue-Bold, Helvetica Neue" font-weight="700"><tspan x="0" y="0">Gas/ </tspan><tspan x="0" y="13">groceries listed </tspan><tspan x="0" y="26">near by </tspan></text>
    </g>
    <g id="Group_221" data-name="Group 221" transform="translate(8353 -2113)">
      <path id="Path_31" data-name="Path 31" d="M0,0H121.906V119.468c-69.839,9.186-121.906,0-121.906,0Z" transform="translate(6100 4834.822)" fill="#6fabde"/>
      <text id="Collect_Points_and_share_my_trip_with_others" data-name="Collect 
Points and share my trip with others" transform="translate(6103 4851)" font-size="14" font-family="HelveticaNeue-Bold, Helvetica Neue" font-weight="700"><tspan x="35.424" y="14">Collect </tspan><tspan x="2.993" y="39">Points and share </tspan><tspan x="19.744" y="64">my trip with </tspan><tspan x="37.608" y="89">others</tspan></text>
    </g>
    <g id="Group_223" data-name="Group 223" transform="translate(8353 -2113)">
      <path id="Path_35" data-name="Path 35" d="M0,0H121.906V119.468c-69.839,9.186-121.906,0-121.906,0Z" transform="translate(6656 4860.822)" fill="#e884d5"/>
      <text id="I_can_travel_Outdoors_Instead_of_working_at_office" data-name="I can travel
Outdoors
Instead of working at office" transform="translate(6665 4860)" font-size="14" font-family="HelveticaNeue-Bold, Helvetica Neue" font-weight="700"><tspan x="14.687" y="14">I can travel</tspan><tspan x="20.126" y="39">Outdoors</tspan><tspan x="18.194" y="64">Instead of </tspan><tspan x="16.122" y="89">working at </tspan><tspan x="32.929" y="114">office</tspan></text>
    </g>
    <g id="Group_225" data-name="Group 225" transform="translate(8353 -2113)">
      <path id="Path_37" data-name="Path 37" d="M0,0H121.906V119.468c-69.839,9.186-121.906,0-121.906,0Z" transform="translate(6946 4850.822)" fill="#e884d5"/>
      <text id="What_if_I_could_Pay_in_parts_For_a_trip" data-name="What if
I could 
Pay in parts 
For a trip" transform="translate(6957 4864)" font-size="18" font-family="HelveticaNeue-Bold, Helvetica Neue" font-weight="700"><tspan x="15.012" y="18">What if</tspan><tspan x="16.02" y="36">I could </tspan><tspan x="18.999" y="54">Pay in </tspan><tspan x="22.833" y="72">parts </tspan><tspan x="6.003" y="90">For a trip</tspan></text>
    </g>
    <text id="What_if_I_can_fly_" data-name="What if I can
fly " transform="translate(15210 2954)" font-size="18" font-family="HelveticaNeue-Bold, Helvetica Neue" font-weight="700"><tspan x="-53.316" y="0">What if I can</tspan><tspan x="-12.672" y="18">fly </tspan></text>
    <text id="McDonald_s_Locator_Fast_food_Craving_" data-name="McDonald’s 
Locator
(Fast food 
Craving)" transform="translate(15221 3061)" font-size="18" font-family="HelveticaNeue-Bold, Helvetica Neue" font-weight="700"><tspan x="-52.992" y="0">McDonald’s </tspan><tspan x="-33.336" y="18">Locator</tspan><tspan x="-45.666" y="36">(Fast food </tspan><tspan x="-35.838" y="54">Craving)</tspan></text>
    <g id="Ellipse_48" data-name="Ellipse 48" transform="translate(13880 2809)" fill="#e21b1b" stroke="#707070" stroke-width="1">
      <ellipse cx="15.5" cy="15" rx="15.5" ry="15" stroke="none"/>
      <ellipse cx="15.5" cy="15" rx="15" ry="14.5" fill="none"/>
    </g>
    <g id="Ellipse_49" data-name="Ellipse 49" transform="translate(14024 3023)" fill="#e21b1b" stroke="#707070" stroke-width="1">
      <ellipse cx="15.5" cy="15" rx="15.5" ry="15" stroke="none"/>
      <ellipse cx="15.5" cy="15" rx="15" ry="14.5" fill="none"/>
    </g>
    <g id="Ellipse_50" data-name="Ellipse 50" transform="translate(14542 2805)" fill="#e21b1b" stroke="#707070" stroke-width="1">
      <ellipse cx="15.5" cy="15" rx="15.5" ry="15" stroke="none"/>
      <ellipse cx="15.5" cy="15" rx="15" ry="14.5" fill="none"/>
    </g>
    <g id="Ellipse_51" data-name="Ellipse 51" transform="translate(15087 2682)" fill="#e21b1b" stroke="#707070" stroke-width="1">
      <ellipse cx="15.5" cy="15" rx="15.5" ry="15" stroke="none"/>
      <ellipse cx="15.5" cy="15" rx="15" ry="14.5" fill="none"/>
    </g>
    <g id="Ellipse_52" data-name="Ellipse 52" transform="translate(14332 3025)" fill="#e21b1b" stroke="#707070" stroke-width="1">
      <ellipse cx="15.5" cy="15" rx="15.5" ry="15" stroke="none"/>
      <ellipse cx="15.5" cy="15" rx="15" ry="14.5" fill="none"/>
    </g>
    <g id="Ellipse_53" data-name="Ellipse 53" transform="translate(13705 3029)" fill="#e21b1b" stroke="#707070" stroke-width="1">
      <ellipse cx="15.5" cy="15" rx="15.5" ry="15" stroke="none"/>
      <ellipse cx="15.5" cy="15" rx="15" ry="14.5" fill="none"/>
    </g>
    <g id="Ellipse_54" data-name="Ellipse 54" transform="translate(15390 2912)" fill="#e21b1b" stroke="#707070" stroke-width="1">
      <ellipse cx="15.5" cy="15" rx="15.5" ry="15" stroke="none"/>
      <ellipse cx="15.5" cy="15" rx="15" ry="14.5" fill="none"/>
    </g>
    <g id="Ellipse_67" data-name="Ellipse 67" transform="translate(15103 3035)" fill="#e21b1b" stroke="#707070" stroke-width="1">
      <ellipse cx="15.5" cy="15" rx="15.5" ry="15" stroke="none"/>
      <ellipse cx="15.5" cy="15" rx="15" ry="14.5" fill="none"/>
    </g>
    <g id="Ellipse_55" data-name="Ellipse 55" transform="translate(15405 2790)" fill="#e21b1b" stroke="#707070" stroke-width="1">
      <ellipse cx="15.5" cy="15" rx="15.5" ry="15" stroke="none"/>
      <ellipse cx="15.5" cy="15" rx="15" ry="14.5" fill="none"/>
    </g>
    <g id="Ellipse_56" data-name="Ellipse 56" transform="translate(14715 2830)" fill="#e21b1b" stroke="#707070" stroke-width="1">
      <ellipse cx="15.5" cy="15" rx="15.5" ry="15" stroke="none"/>
      <ellipse cx="15.5" cy="15" rx="15" ry="14.5" fill="none"/>
    </g>
    <g id="Ellipse_57" data-name="Ellipse 57" transform="translate(14722 3017)" fill="#e21b1b" stroke="#707070" stroke-width="1">
      <ellipse cx="15.5" cy="15" rx="15.5" ry="15" stroke="none"/>
      <ellipse cx="15.5" cy="15" rx="15" ry="14.5" fill="none"/>
    </g>
  </g>
</svg>
