<svg xmlns="http://www.w3.org/2000/svg" width="1852.558" height="980" viewBox="0 0 1852.558 980">
  <g id="Group_371" data-name="Group 371" transform="translate(-10857 -3567)">
    <g id="Group_269" data-name="Group 269" transform="translate(2 9)">
      <g id="Group_266" data-name="Group 266" transform="translate(-175 54)">
        <g id="Group_172" data-name="Group 172" transform="translate(10978 3376)">
          <g id="Group_148" data-name="Group 148">
            <g id="Group_57" data-name="Group 57">
              <g id="Group_58" data-name="Group 58">
                <rect id="Rectangle_6" data-name="Rectangle 6" width="1852.558" height="943" transform="translate(52 165)" fill="#fff"/>
                <line id="Line_8" data-name="Line 8" y2="533" transform="translate(192.5 429.5)" fill="none" stroke="#000" stroke-width="5"/>
                <line id="Line_9" data-name="Line 9" x1="1601.558" transform="translate(192.5 962.5)" fill="none" stroke="#000" stroke-width="5"/>
                <path id="Polygon_1" data-name="Polygon 1" d="M9,0l9,16H0Z" transform="translate(184 347.86)"/>
                <path id="Polygon_2" data-name="Polygon 2" d="M9,0l9,16H0Z" transform="translate(1810.558 954) rotate(90)"/>
                <text id="IMPACT_PRIORITY_" data-name="IMPACT / PRIORITY " transform="translate(827.684 1002)" font-size="30" font-family="RobotoSlab-Regular, Roboto Slab"><tspan x="0" y="31">IMPACT / PRIORITY </tspan></text>
                <text id="COMPLEXITY" transform="translate(102 764.067) rotate(-90)" font-size="30" font-family="RobotoSlab-Regular, Roboto Slab"><tspan x="0" y="31">COMPLEXITY</tspan></text>
                <rect id="Rectangle_38" data-name="Rectangle 38" width="28" height="8" transform="translate(207 640.2)" fill="#707070"/>
                <rect id="Rectangle_48" data-name="Rectangle 48" width="28" height="8" transform="translate(875.869 640.2)" fill="#707070"/>
                <rect id="Rectangle_77" data-name="Rectangle 77" width="28" height="8" transform="translate(1002.554 768.6) rotate(-90)" fill="#707070"/>
                <rect id="Rectangle_43" data-name="Rectangle 43" width="28" height="8" transform="translate(587.28 640.2)" fill="#707070"/>
                <rect id="Rectangle_53" data-name="Rectangle 53" width="28" height="8" transform="translate(1164.458 640.2)" fill="#707070"/>
                <rect id="Rectangle_72" data-name="Rectangle 72" width="28" height="8" transform="translate(1002.554 548.183) rotate(-90)" fill="#707070"/>
                <rect id="Rectangle_62" data-name="Rectangle 62" width="28" height="8" transform="translate(1453.048 640.2)" fill="#707070"/>
                <rect id="Rectangle_39" data-name="Rectangle 39" width="28" height="8" transform="translate(356.408 640.2)" fill="#707070"/>
                <rect id="Rectangle_49" data-name="Rectangle 49" width="28" height="8" transform="translate(933.587 640.2)" fill="#707070"/>
                <rect id="Rectangle_76" data-name="Rectangle 76" width="28" height="8" transform="translate(1002.554 724.517) rotate(-90)" fill="#707070"/>
                <rect id="Rectangle_44" data-name="Rectangle 44" width="28" height="8" transform="translate(644.997 640.2)" fill="#707070"/>
                <rect id="Rectangle_81" data-name="Rectangle 81" width="28" height="8" transform="translate(1002.554 958) rotate(-90)" fill="#707070"/>
                <rect id="Rectangle_54" data-name="Rectangle 54" width="28" height="8" transform="translate(1222.176 640.2)" fill="#707070"/>
                <rect id="Rectangle_71" data-name="Rectangle 71" width="28" height="8" transform="translate(1002.554 504.1) rotate(-90)" fill="#707070"/>
                <rect id="Rectangle_61" data-name="Rectangle 61" width="28" height="8" transform="translate(1510.766 640.2)" fill="#707070"/>
                <rect id="Rectangle_40" data-name="Rectangle 40" width="28" height="8" transform="translate(414.126 640.2)" fill="#707070"/>
                <rect id="Rectangle_75" data-name="Rectangle 75" width="28" height="8" transform="translate(1002.554 680.433) rotate(-90)" fill="#707070"/>
                <rect id="Rectangle_45" data-name="Rectangle 45" width="28" height="8" transform="translate(702.715 640.2)" fill="#707070"/>
                <rect id="Rectangle_80" data-name="Rectangle 80" width="28" height="8" transform="translate(1002.554 918) rotate(-90)" fill="#707070"/>
                <rect id="Rectangle_55" data-name="Rectangle 55" width="28" height="8" transform="translate(1279.894 640.2)" fill="#707070"/>
                <rect id="Rectangle_70" data-name="Rectangle 70" width="28" height="8" transform="translate(1002.554 460.017) rotate(-90)" fill="#707070"/>
                <rect id="Rectangle_60" data-name="Rectangle 60" width="28" height="8" transform="translate(1670.558 640.2)" fill="#707070"/>
                <rect id="Rectangle_41" data-name="Rectangle 41" width="28" height="8" transform="translate(471.844 640.2)" fill="#707070"/>
                <rect id="Rectangle_51" data-name="Rectangle 51" width="28" height="8" transform="translate(1049.023 640.2)" fill="#707070"/>
                <rect id="Rectangle_74" data-name="Rectangle 74" width="28" height="8" transform="translate(1002.554 636.35) rotate(-90)" fill="#707070"/>
                <rect id="Rectangle_46" data-name="Rectangle 46" width="28" height="8" transform="translate(760.433 640.2)" fill="#707070"/>
                <rect id="Rectangle_79" data-name="Rectangle 79" width="28" height="8" transform="translate(1002.554 856.767) rotate(-90)" fill="#707070"/>
                <rect id="Rectangle_56" data-name="Rectangle 56" width="28" height="8" transform="translate(1337.612 640.2)" fill="#707070"/>
                <rect id="Rectangle_69" data-name="Rectangle 69" width="28" height="8" transform="translate(1002.554 415.933) rotate(-90)" fill="#707070"/>
                <rect id="Rectangle_59" data-name="Rectangle 59" width="28" height="8" transform="translate(1710.558 640.2)" fill="#707070"/>
                <rect id="Rectangle_42" data-name="Rectangle 42" width="28" height="8" transform="translate(529.562 640.2)" fill="#707070"/>
                <rect id="Rectangle_52" data-name="Rectangle 52" width="28" height="8" transform="translate(1106.741 640.2)" fill="#707070"/>
                <rect id="Rectangle_73" data-name="Rectangle 73" width="28" height="8" transform="translate(1002.554 592.267) rotate(-90)" fill="#707070"/>
                <rect id="Rectangle_47" data-name="Rectangle 47" width="28" height="8" transform="translate(818.151 640.2)" fill="#707070"/>
                <rect id="Rectangle_78" data-name="Rectangle 78" width="28" height="8" transform="translate(1002.554 812.683) rotate(-90)" fill="#707070"/>
                <rect id="Rectangle_57" data-name="Rectangle 57" width="28" height="8" transform="translate(1395.33 640.2)" fill="#707070"/>
                <rect id="Rectangle_68" data-name="Rectangle 68" width="28" height="8" transform="translate(1002.554 371.85) rotate(-90)" fill="#707070"/>
                <rect id="Rectangle_58" data-name="Rectangle 58" width="28" height="8" transform="translate(1750.558 640.2)" fill="#707070"/>
                <rect id="Rectangle_82" data-name="Rectangle 82" width="28" height="8" transform="translate(1790.558 640.2)" fill="#707070"/>
                <text id="LOW" transform="translate(63 958)" font-size="30" font-family="RobotoSlab-Regular, Roboto Slab"><tspan x="0" y="0">LOW</tspan></text>
                <text id="LOW-2" data-name="LOW" transform="translate(199 1033)" font-size="30" font-family="RobotoSlab-Regular, Roboto Slab"><tspan x="0" y="0">LOW</tspan></text>
                <text id="HIGH" transform="translate(63 406.111)" font-size="30" font-family="RobotoSlab-Regular, Roboto Slab"><tspan x="0" y="0">HIGH</tspan></text>
                <text id="HIGH-2" data-name="HIGH" transform="translate(1726.558 1033)" font-size="30" font-family="RobotoSlab-Regular, Roboto Slab"><tspan x="0" y="0">HIGH</tspan></text>
              </g>
            </g>
            <path id="Path_18" data-name="Path 18" d="M0,0H121.906V119.468c-69.839,9.186-121.906,0-121.906,0Z" transform="translate(1448.883 503.043)" fill="#6fabde"/>
            <text id="_A_place_for_previous_travelers_to_post_their_pictures_so_I_could_view_them_alongside_the_official_pics_" data-name=" A place for 
 previous travelers
 to post their pictures
 so I  could view them
 alongside the official 
 pics  " transform="translate(1453.895 529.795)" font-size="10" font-family="HelveticaNeue-Bold, Helvetica Neue" font-weight="700"><tspan x="0" y="0"> </tspan><tspan y="0" font-family="RobotoSlab-Bold, Roboto Slab">A place for </tspan><tspan font-family="RobotoSlab-Bold, Roboto Slab"><tspan x="0" y="10" xml:space="preserve"> previous travelers</tspan><tspan x="0" y="20" xml:space="preserve"> to post their pictures</tspan><tspan x="0" y="30" xml:space="preserve"> so I  could view them</tspan><tspan x="0" y="40" xml:space="preserve"> alongside the official </tspan><tspan x="0" y="50" xml:space="preserve"> pics  </tspan></tspan></text>
          </g>
        </g>
        <g id="Group_195" data-name="Group 195" transform="translate(12238.359 3732.079)">
          <path id="Path_8" data-name="Path 8" d="M0,0H121.906V119.468c-69.839,9.186-121.906,0-121.906,0Z" fill="#5efdf0"/>
          <path id="Path_26" data-name="Path 26" d="M0,0H121.906V119.468c-69.839,9.186-121.906,0-121.906,0Z" fill="#5efdf0"/>
          <path id="Path_27" data-name="Path 27" d="M0,0H121.906V119.468c-69.839,9.186-121.906,0-121.906,0Z" fill="#5efdf0"/>
          <text id="Feel_reassured_my_financial_and_personal_information_is_going_through_a_trusted_source" data-name="Feel reassured
 my financial 
and personal
 information is 
going through 
a trusted source" transform="translate(6 37.178)" font-size="14" font-family="HelveticaNeue-Bold, Helvetica Neue" font-weight="700"><tspan x="0" y="0">Feel reassured</tspan><tspan x="0" y="12" xml:space="preserve"> my financial </tspan><tspan x="0" y="24">and personal</tspan><tspan x="0" y="36" xml:space="preserve"> information is </tspan><tspan x="0" y="48">going through </tspan><tspan x="0" y="60">a trusted source</tspan></text>
          <text id="Feel_reassured_my_financial_and_personal_information_is_going_through_a_trusted_source-2" data-name="Feel reassured
 my financial 
and personal
 information is 
going through 
a trusted source" transform="translate(6 37.178)" font-size="14" font-family="HelveticaNeue-Bold, Helvetica Neue" font-weight="700"><tspan x="0" y="0">Feel reassured</tspan><tspan x="0" y="12" xml:space="preserve"> my financial </tspan><tspan x="0" y="24">and personal</tspan><tspan x="0" y="36" xml:space="preserve"> information is </tspan><tspan x="0" y="48">going through </tspan><tspan x="0" y="60">a trusted source</tspan></text>
          <path id="Path_28" data-name="Path 28" d="M0,0H121.906V119.468c-69.839,9.186-121.906,0-121.906,0Z" transform="translate(6)" fill="#5efdf0"/>
          <text id="Feel_reassured_my_financial_and_personal_information_is_going_through_a_trusted_source-3" data-name="Feel reassured
 my financial 
and personal
 information is 
going through 
a trusted source" transform="translate(12 37.178)" font-size="14" font-family="HelveticaNeue-Bold, Helvetica Neue" font-weight="700"><tspan x="0" y="0">Feel reassured</tspan><tspan x="0" y="12" xml:space="preserve"> my financial </tspan><tspan x="0" y="24">and personal</tspan><tspan x="0" y="36" xml:space="preserve"> information is </tspan><tspan x="0" y="48">going through </tspan><tspan x="0" y="60">a trusted source</tspan></text>
        </g>
        <g id="Group_203" data-name="Group 203" transform="translate(12231.926 4199.822)">
          <g id="Group_186" data-name="Group 186">
            <path id="Path_8-2" data-name="Path 8" d="M0,0H121.906V119.468c-69.839,9.186-121.906,0-121.906,0Z" fill="#5efdf0"/>
            <text id="I_like_to_feel_satisfied_when_everything_are_planned_and_organised" data-name="I like to feel
satisfied 
when 
everything
are planned 
and organised" transform="translate(13 31.178)" font-size="14" font-family="RobotoSlab-Bold, Roboto Slab" font-weight="700"><tspan x="0" y="0">I like to feel</tspan><tspan x="0" y="12">satisfied </tspan><tspan x="0" y="24">when </tspan><tspan x="0" y="36">everything</tspan><tspan x="0" y="48">are planned </tspan><tspan x="0" y="60">and organised</tspan></text>
          </g>
        </g>
        <g id="Group_205" data-name="Group 205" transform="translate(12038.473 4198.822)">
          <path id="Path_8-3" data-name="Path 8" d="M0,0H121.906V119.468c-69.839,9.186-121.906,0-121.906,0Z" fill="#5efdf0"/>
          <path id="Path_29" data-name="Path 29" d="M0,0H121.906V119.468c-69.839,9.186-121.906,0-121.906,0Z" fill="#5efdf0"/>
          <text id="I_like_to_to_maintain_social_distance" data-name="I like to to maintain social distance" transform="translate(10 23.178)" fill="#0f0e0e" font-size="18" font-family="HelveticaNeue-Bold, Helvetica Neue" font-weight="700"><tspan x="13.529" y="18">I like to to </tspan><tspan x="19.028" y="36">maintain </tspan><tspan x="30.692" y="54">social </tspan><tspan x="19.343" y="72">distance</tspan></text>
          <text id="I_like_to_to_maintain_social_distance-2" data-name="I like to to maintain social distance" transform="translate(10 23.178)" fill="#0f0e0e" font-size="18" font-family="HelveticaNeue-Bold, Helvetica Neue" font-weight="700"><tspan x="13.529" y="18">I like to to </tspan><tspan x="19.028" y="36">maintain </tspan><tspan x="30.692" y="54">social </tspan><tspan x="19.343" y="72">distance</tspan></text>
          <path id="Path_30" data-name="Path 30" d="M0,0H121.906V119.468c-69.839,9.186-121.906,0-121.906,0Z" transform="translate(0 1)" fill="#5efdf0"/>
          <text id="I_like_to_to_maintain_social_distance-3" data-name="I like to to maintain social distance" transform="translate(10 24.178)" fill="#0f0e0e" font-size="18" font-family="RobotoSlab-Bold, Roboto Slab" font-weight="700"><tspan x="13.742" y="19">I like to to </tspan><tspan x="17.157" y="37">maintain </tspan><tspan x="30.868" y="55">social </tspan><tspan x="19.635" y="73">distance</tspan></text>
        </g>
        <g id="Group_207" data-name="Group 207" transform="translate(11344.282 3732.079)">
          <g id="Group_180" data-name="Group 180">
            <path id="Path_33" data-name="Path 33" d="M0,0H121.906V119.468c-69.839,9.186-121.906,0-121.906,0Z" fill="#e884d5"/>
          </g>
          <text id="What_if_I_could_Have_a_Pocket_Barista" data-name="What if
I could
Have a
Pocket
Barista" transform="translate(53 32.178)" font-size="20" font-family="HelveticaNeue-Bold, Helvetica Neue" font-weight="700"><tspan x="-33.32" y="0">What if</tspan><tspan x="-32.2" y="20">I could</tspan><tspan x="-32.61" y="40">Have a</tspan><tspan x="-33.52" y="60">Pocket</tspan><tspan x="-33.88" y="80">Barista</tspan></text>
        </g>
        <path id="Path_48" data-name="Path 48" d="M0,0H121.906V119.468c-69.839,9.186-121.906,0-121.906,0Z" transform="translate(12703.559 3877.93)" fill="#6fabde"/>
        <text id="Have_a_Pin_board_in_AP_so_group_traveling_can_log_in_pin_their_ideas_the_group_vacation_brainstorm_" data-name="Have a Pin board
 in AP so group
 traveling can log
 in, pin their ideas
 the group vacation 
brainstorm   " transform="translate(12707.559 3903.967)" font-size="12" font-family="RobotoSlab-Bold, Roboto Slab" font-weight="700"><tspan x="0" y="0">Have a Pin board</tspan><tspan x="0" y="12" xml:space="preserve"> in AP so group</tspan><tspan x="0" y="24" xml:space="preserve"> traveling can log</tspan><tspan x="0" y="36" xml:space="preserve"> in, pin their ideas</tspan><tspan x="0" y="48" xml:space="preserve"> the group vacation </tspan><tspan x="0" y="60" xml:space="preserve">brainstorm   </tspan></text>
        <path id="Path_49" data-name="Path 49" d="M0,0H121.906V119.468c-69.839,9.186-121.906,0-121.906,0Z" transform="translate(12101.955 4036.028)" fill="#6fabde"/>
        <text id="ECO_friendly_vacation_itinerary_" data-name="ECO friendly 
vacation itinerary " transform="translate(12110.838 4060.206)" font-size="12" font-family="HelveticaNeue-Bold, Helvetica Neue" font-weight="700"><tspan x="0" y="0">ECO friendly </tspan><tspan x="0" y="12">vacation itinerary </tspan></text>
        <g id="Group_216" data-name="Group 216" transform="translate(11796.248 4160.725)">
          <path id="Path_22" data-name="Path 22" d="M0,0H121.906V119.468c-69.839,9.186-121.906,0-121.906,0Z" fill="#6fabde"/>
          <text id="I_wish_I_could_book_a_Tree_house_" data-name="I wish
I could book
a Tree house  " transform="translate(3 33.178)" font-size="18" font-family="HelveticaNeue-Bold, Helvetica Neue" font-weight="700"><tspan x="0" y="0">I wish</tspan><tspan x="0" y="18">I could book</tspan><tspan x="0" y="36" xml:space="preserve">a Tree house  </tspan></text>
        </g>
        <path id="Path_52" data-name="Path 52" d="M0,0H121.906V119.468c-69.839,9.186-121.906,0-121.906,0Z" transform="translate(11344.282 4036.028)" fill="#e884d5"/>
        <text id="RV_Delivery_" data-name="RV Delivery " transform="translate(11402.428 4059.439)" font-size="12" font-family="HelveticaNeue-Bold, Helvetica Neue" font-weight="700"><tspan x="-34.338" y="0">RV Delivery </tspan></text>
        <g id="Group_217" data-name="Group 217" transform="translate(12583.559 3732.079)">
          <path id="Path_8-4" data-name="Path 8" d="M0,0H121.906V119.468c-69.839,9.186-121.906,0-121.906,0Z" fill="#6fabde"/>
          <text id="I_wish_I_could_see_sample_trips_others_took_who_live_in_my_area" data-name="I   wish I could 
see sample trips 
others took who 
live in my area" transform="translate(12 29.178)" font-size="12" font-family="HelveticaNeue-Bold, Helvetica Neue" font-weight="700"><tspan x="0" y="0" xml:space="preserve">I   wish I could </tspan><tspan x="0" y="12">see sample trips </tspan><tspan x="0" y="24">others took who </tspan><tspan x="0" y="36">live in my area</tspan></text>
        </g>
        <path id="Path_53" data-name="Path 53" d="M0,0H121.906V119.468c-69.839,9.186-121.906,0-121.906,0Z" transform="translate(12685.559 4190.822)" fill="#5efdf0"/>
        <text id="Exclusive_pricing_offered_when_booking_through_Pine_Cone" data-name="Exclusive 
pricing offered 
when booking 
through Pine 
Cone" transform="translate(12705.559 4199.764)" font-size="12" font-family="HelveticaNeue-Bold, Helvetica Neue" font-weight="700"><tspan x="0" y="0">Exclusive </tspan><tspan x="0" y="12">pricing offered </tspan><tspan x="0" y="24">when booking </tspan><tspan x="0" y="36">through Pine </tspan><tspan x="0" y="48">Cone</tspan></text>
        <g id="Group_219" data-name="Group 219" transform="translate(12038.446 3730.966)">
          <path id="Path_8-5" data-name="Path 8" d="M0,0H121.906V119.468c-69.839,9.186-121.906,0-121.906,0Z" fill="#5efdf0"/>
          <text id="Gas_groceries_listed_near_by_" data-name="Gas/ 
groceries listed 
near by " transform="translate(20 29.178)" font-size="12" font-family="HelveticaNeue-Bold, Helvetica Neue" font-weight="700"><tspan x="0" y="0">Gas/ </tspan><tspan x="0" y="12">groceries listed </tspan><tspan x="0" y="24">near by </tspan></text>
        </g>
        <g id="Group_220" data-name="Group 220" transform="translate(12035.492 3883.497)">
          <path id="Path_41" data-name="Path 41" d="M0,0H121.906V119.468c-69.839,9.186-121.906,0-121.906,0Z" fill="#5efdf0"/>
          <text id="I_like_to_find_hidden_gems_places" data-name="I like to find hidden gems
places" transform="translate(5 22.178)" fill="#0f0e0e" font-size="18" font-family="HelveticaNeue-Bold, Helvetica Neue" font-weight="700"><tspan x="5.861" y="18">I like to find </tspan><tspan x="0.686" y="36">hidden gems</tspan><tspan x="27.848" y="54">places</tspan></text>
        </g>
        <g id="Group_222" data-name="Group 222" transform="translate(12425.406 4190.822)">
          <path id="Path_31" data-name="Path 31" d="M0,0H121.906V119.468c-69.839,9.186-121.906,0-121.906,0Z" fill="#6fabde"/>
          <text id="Collect_Points_and_share_my_trip_with_others" data-name="Collect 
Points and share my trip with others" transform="translate(3 16.178)" font-size="14" font-family="RobotoSlab-Bold, Roboto Slab" font-weight="700"><tspan x="36.117" y="15">Collect </tspan><tspan x="3.342" y="40">Points and share </tspan><tspan x="17.933" y="65">my trip with </tspan></text>
        </g>
        <g id="Group_224" data-name="Group 224" transform="translate(11548.101 3744.56)">
          <path id="Path_35" data-name="Path 35" d="M0,0H121.906V119.468c-69.839,9.186-121.906,0-121.906,0Z" transform="translate(0 0.822)" fill="#e884d5"/>
          <text id="I_can_travel_Outdoors_Instead_of_working_at_office" data-name="I can travel
Outdoors
Instead of working at office" transform="translate(9)" font-size="14" font-family="HelveticaNeue-Bold, Helvetica Neue" font-weight="700"><tspan x="14.687" y="14">I can travel</tspan><tspan x="20.126" y="39">Outdoors</tspan><tspan x="18.194" y="64">Instead of </tspan><tspan x="16.122" y="89">working at </tspan><tspan x="32.929" y="114">office</tspan></text>
        </g>
        <g id="Group_226" data-name="Group 226" transform="translate(12425.406 4031.575)">
          <path id="Path_37" data-name="Path 37" d="M0,0H121.906V119.468c-69.839,9.186-121.906,0-121.906,0Z" fill="#e884d5"/>
          <text id="What_if_I_could_Pay_in_parts_For_a_trip" data-name="What if
I could 
Pay in parts 
For a trip" transform="translate(11 13.178)" font-size="18" font-family="HelveticaNeue-Bold, Helvetica Neue" font-weight="700"><tspan x="15.012" y="18">What if</tspan><tspan x="16.02" y="36">I could </tspan><tspan x="18.999" y="54">Pay in </tspan><tspan x="22.833" y="72">parts </tspan><tspan x="6.003" y="90">For a trip</tspan></text>
        </g>
        <path id="Path_75" data-name="Path 75" d="M0,0H121.906V119.468c-69.839,9.186-121.906,0-121.906,0Z" transform="translate(12716.559 3732.079)" fill="#e884d5"/>
        <text id="Amazon_suggestions_Discount_On_Camping_Supplies_" data-name="Amazon
suggestions/ 
Discount 
On 
Camping
Supplies " transform="translate(12778.559 3757.582)" font-size="18" font-family="HelveticaNeue-Bold, Helvetica Neue" font-weight="700"><tspan x="-34.992" y="0">Amazon</tspan><tspan x="-58.167" y="18">suggestions/ </tspan><tspan x="-40.833" y="36">Discount </tspan><tspan x="-14.841" y="54">On </tspan><tspan x="-38.646" y="72">Camping</tspan><tspan x="-39.321" y="90">Supplies </tspan></text>
      </g>
    </g>
  </g>
</svg>
