<svg xmlns="http://www.w3.org/2000/svg" width="1039" height="320" viewBox="0 0 1039 320">
  <g id="Group_2649" data-name="Group 2649" transform="translate(-649 -2648)">
    <g id="Group_2615" data-name="Group 2615" transform="translate(1335 2647.564)">
      <g id="Ellipse_331" data-name="Ellipse 331" transform="translate(21 3.435)" fill="#536a7b" stroke="#f6e2e0" stroke-width="6">
        <circle cx="92" cy="92" r="92" stroke="none"/>
        <circle cx="92" cy="92" r="89" fill="none"/>
      </g>
      <text id="Flow_Diagrams" data-name="Flow
Diagrams" transform="translate(113 89.436)" fill="#fff" font-size="23" font-family="Optima-Bold, Optima" font-weight="700"><tspan x="-24.15" y="0">Flow</tspan><tspan x="-47.782" y="28">Diagrams</tspan></text>
    </g>
    <g id="Path_4855" data-name="Path 4855" transform="translate(1504 2648)" fill="#536a7b">
      <path d="M 92 181 C 85.95950317382812 181 79.92368316650391 180.3916320800781 74.06021118164062 179.1917877197266 C 68.3472900390625 178.0227661132812 62.7278938293457 176.2783966064453 57.35810470581055 174.0071868896484 C 52.08513259887695 171.7769012451172 46.99913024902344 169.0162658691406 42.24134063720703 165.8019714355469 C 37.52799987792969 162.6177062988281 33.09568405151367 158.9606781005859 29.0674991607666 154.9324951171875 C 25.03931617736816 150.9043426513672 21.38231658935547 146.4720001220703 18.19802665710449 141.7586517333984 C 14.98373699188232 137.0009002685547 12.22310543060303 131.9148712158203 9.992841720581055 126.6418914794922 C 7.72160530090332 121.272102355957 5.977236747741699 115.6527099609375 4.808210372924805 109.9397888183594 C 3.608368396759033 104.0763168334961 3 98.04049682617188 3 92 C 3 85.95950317382812 3.608368396759033 79.92368316650391 4.808210372924805 74.06021118164062 C 5.977236747741699 68.3472900390625 7.72160530090332 62.7278938293457 9.992841720581055 57.35810470581055 C 12.22310543060303 52.08513259887695 14.98373699188232 46.99913024902344 18.19802665710449 42.24134063720703 C 21.38231658935547 37.52799987792969 25.03931617736816 33.09568405151367 29.0674991607666 29.0674991607666 C 33.09568405151367 25.03931617736816 37.52799987792969 21.38231658935547 42.24134063720703 18.19802665710449 C 46.99913024902344 14.98373699188232 52.08513259887695 12.22310543060303 57.35810470581055 9.992841720581055 C 62.7278938293457 7.72160530090332 68.3472900390625 5.977236747741699 74.06021118164062 4.808210372924805 C 79.92368316650391 3.608368396759033 85.95950317382812 3 92 3 C 98.04049682617188 3 104.0763168334961 3.608368396759033 109.9397888183594 4.808210372924805 C 115.6527099609375 5.977236747741699 121.272102355957 7.72160530090332 126.6418914794922 9.992841720581055 C 131.9148712158203 12.22310543060303 137.0009002685547 14.98373699188232 141.7586517333984 18.19802665710449 C 146.4720001220703 21.38231658935547 150.9043426513672 25.03931617736816 154.9324951171875 29.0674991607666 C 158.9606781005859 33.09568405151367 162.6177062988281 37.52799987792969 165.8019714355469 42.24134063720703 C 169.0162658691406 46.99913024902344 171.7769012451172 52.08513259887695 174.0071868896484 57.35810470581055 C 176.2783966064453 62.7278938293457 178.0227661132812 68.3472900390625 179.1917877197266 74.06021118164062 C 180.3916320800781 79.92368316650391 181 85.95950317382812 181 92 C 181 98.04049682617188 180.3916320800781 104.0763168334961 179.1917877197266 109.9397888183594 C 178.0227661132812 115.6527099609375 176.2783966064453 121.272102355957 174.0071868896484 126.6418914794922 C 171.7769012451172 131.9148712158203 169.0162658691406 137.0009002685547 165.8019714355469 141.7586517333984 C 162.6177062988281 146.4720001220703 158.9606781005859 150.9043426513672 154.9324951171875 154.9324951171875 C 150.9043426513672 158.9606781005859 146.4720001220703 162.6177062988281 141.7586517333984 165.8019714355469 C 137.0009002685547 169.0162658691406 131.9148712158203 171.7769012451172 126.6418914794922 174.0071868896484 C 121.272102355957 176.2783966064453 115.6527099609375 178.0227661132812 109.9397888183594 179.1917877197266 C 104.0763168334961 180.3916320800781 98.04049682617188 181 92 181 Z" stroke="none"/>
      <path d="M 92 6 C 44.57943725585938 6 6 44.57943725585938 6 92 C 6 139.4205627441406 44.57943725585938 178 92 178 C 139.4205627441406 178 178 139.4205627441406 178 92 C 178 44.57943725585938 139.4205627441406 6 92 6 M 92 0 C 142.8102111816406 0 184 41.18978881835938 184 92 C 184 142.8102111816406 142.8102111816406 184 92 184 C 41.18978881835938 184 0 142.8102111816406 0 92 C 0 41.18978881835938 41.18978881835938 0 92 0 Z" stroke="none" fill="#f6e2e0"/>
    </g>
    <g id="Path_4852" data-name="Path 4852" transform="translate(1618 2648)" fill="#9ea3b0">
      <path d="M0,92Z" stroke="none"/>
      <path d="M 0 77.33235931396484 L 0 106.6676406860352 L 0 77.33235931396484 Z" stroke="none" fill="#f6e2e0"/>
    </g>
    <text id="Interviewing_Testing_" data-name="Interviewing
&amp;
Testing " transform="translate(1595 2734)" fill="#fff" font-size="23" font-family="Optima-Bold, Optima" font-weight="700"><tspan x="-63.262" y="0">Interviewing</tspan><tspan x="-8.303" y="28">&amp;</tspan><tspan x="-37.835" y="56">Testing </tspan></text>
    <g id="Group_2644" data-name="Group 2644" transform="translate(455 -40)">
      <g id="Group_2615-2" data-name="Group 2615" transform="translate(194 2688)">
        <g id="Ellipse_331-2" data-name="Ellipse 331" fill="#536a7b" stroke="#f6e2e0" stroke-width="6">
          <circle cx="92" cy="92" r="92" stroke="none"/>
          <circle cx="92" cy="92" r="89" fill="none"/>
        </g>
        <text id="Atomic_Design" data-name="Atomic
Design" transform="translate(92 88)" fill="#fff" font-size="23" font-family="Optima-Bold, Optima" font-weight="700"><tspan x="-36.421" y="0">Atomic</tspan><tspan x="-34.512" y="28">Design</tspan></text>
      </g>
      <g id="Group_2615-3" data-name="Group 2615" transform="translate(477.079 2688)">
        <g id="Ellipse_331-3" data-name="Ellipse 331" transform="translate(-0.079)" fill="#536a7b" stroke="#f6e2e0" stroke-width="6">
          <circle cx="92" cy="92" r="92" stroke="none"/>
          <circle cx="92" cy="92" r="89" fill="none"/>
        </g>
        <text id="Color_Theory" data-name="Color
Theory" transform="translate(91.921 88)" fill="#fff" font-size="23" font-family="Optima-Bold, Optima" font-weight="700"><tspan x="-28.129" y="0">Color</tspan><tspan x="-34.638" y="28">Theory</tspan></text>
      </g>
      <g id="Group_2615-4" data-name="Group 2615" transform="translate(620.71 2688)">
        <g id="Ellipse_331-4" data-name="Ellipse 331" transform="translate(0.29)" fill="#536a7b" stroke="#f6e2e0" stroke-width="6">
          <circle cx="92" cy="92" r="92" stroke="none"/>
          <circle cx="92" cy="92" r="89" fill="none"/>
        </g>
        <text id="Heuristic_Evaluation" data-name="Heuristic
Evaluation" transform="translate(92.29 88)" fill="#fff" font-size="23" font-family="Optima-Bold, Optima" font-weight="700"><tspan x="-46.012" y="0">Heuristic</tspan><tspan x="-52.13" y="28">Evaluation</tspan></text>
      </g>
      <g id="Group_2615-5" data-name="Group 2615" transform="translate(764.341 2688)">
        <g id="Ellipse_331-5" data-name="Ellipse 331" transform="translate(-0.341)" fill="#536a7b" stroke="#f6e2e0" stroke-width="6">
          <circle cx="92" cy="92" r="92" stroke="none"/>
          <circle cx="92" cy="92" r="89" fill="none"/>
        </g>
        <text id="Typography" transform="translate(92.744 97)" fill="#fff" font-size="23" font-family="SFProDisplay-Bold, SF Pro Display" font-weight="700"><tspan x="-62.728" y="0">Typography</tspan></text>
      </g>
      <g id="Group_2615-6" data-name="Group 2615" transform="translate(333.448 2688)">
        <g id="Path_4854" data-name="Path 4854" transform="translate(-0.448)" fill="#536a7b">
          <path d="M 92 181 C 85.95950317382812 181 79.92368316650391 180.3916320800781 74.06021118164062 179.1917877197266 C 68.3472900390625 178.0227661132812 62.7278938293457 176.2783966064453 57.35810470581055 174.0071868896484 C 52.08513259887695 171.7769012451172 46.99913024902344 169.0162658691406 42.24134063720703 165.8019714355469 C 37.52799987792969 162.6177062988281 33.09568405151367 158.9606781005859 29.0674991607666 154.9324951171875 C 25.03931617736816 150.9043426513672 21.38231658935547 146.4720001220703 18.19802665710449 141.7586517333984 C 14.98373699188232 137.0009002685547 12.22310543060303 131.9148712158203 9.992841720581055 126.6418914794922 C 7.72160530090332 121.272102355957 5.977236747741699 115.6527099609375 4.808210372924805 109.9397888183594 C 3.608368396759033 104.0763168334961 3 98.04049682617188 3 92 C 3 85.95950317382812 3.608368396759033 79.92368316650391 4.808210372924805 74.06021118164062 C 5.977236747741699 68.3472900390625 7.72160530090332 62.7278938293457 9.992841720581055 57.35810470581055 C 12.22310543060303 52.08513259887695 14.98373699188232 46.99913024902344 18.19802665710449 42.24134063720703 C 21.38231658935547 37.52799987792969 25.03931617736816 33.09568405151367 29.0674991607666 29.0674991607666 C 33.09568405151367 25.03931617736816 37.52799987792969 21.38231658935547 42.24134063720703 18.19802665710449 C 46.99913024902344 14.98373699188232 52.08513259887695 12.22310543060303 57.35810470581055 9.992841720581055 C 62.7278938293457 7.72160530090332 68.3472900390625 5.977236747741699 74.06021118164062 4.808210372924805 C 79.92368316650391 3.608368396759033 85.95950317382812 3 92 3 C 98.04049682617188 3 104.0763168334961 3.608368396759033 109.9397888183594 4.808210372924805 C 115.6527099609375 5.977236747741699 121.272102355957 7.72160530090332 126.6418914794922 9.992841720581055 C 131.9148712158203 12.22310543060303 137.0009002685547 14.98373699188232 141.7586517333984 18.19802665710449 C 146.4720001220703 21.38231658935547 150.9043426513672 25.03931617736816 154.9324951171875 29.0674991607666 C 158.9606781005859 33.09568405151367 162.6177062988281 37.52799987792969 165.8019714355469 42.24134063720703 C 169.0162658691406 46.99913024902344 171.7769012451172 52.08513259887695 174.0071868896484 57.35810470581055 C 176.2783966064453 62.7278938293457 178.0227661132812 68.3472900390625 179.1917877197266 74.06021118164062 C 180.3916320800781 79.92368316650391 181 85.95950317382812 181 92 C 181 98.04049682617188 180.3916320800781 104.0763168334961 179.1917877197266 109.9397888183594 C 178.0227661132812 115.6527099609375 176.2783966064453 121.272102355957 174.0071868896484 126.6418914794922 C 171.7769012451172 131.9148712158203 169.0162658691406 137.0009002685547 165.8019714355469 141.7586517333984 C 162.6177062988281 146.4720001220703 158.9606781005859 150.9043426513672 154.9324951171875 154.9324951171875 C 150.9043426513672 158.9606781005859 146.4720001220703 162.6177062988281 141.7586517333984 165.8019714355469 C 137.0009002685547 169.0162658691406 131.9148712158203 171.7769012451172 126.6418914794922 174.0071868896484 C 121.272102355957 176.2783966064453 115.6527099609375 178.0227661132812 109.9397888183594 179.1917877197266 C 104.0763168334961 180.3916320800781 98.04049682617188 181 92 181 Z" stroke="none"/>
          <path d="M 92 6 C 44.57943725585938 6 6 44.57943725585938 6 92 C 6 139.4205627441406 44.57943725585938 178 92 178 C 139.4205627441406 178 178 139.4205627441406 178 92 C 178 44.57943725585938 139.4205627441406 6 92 6 M 92 0 C 142.8102111816406 0 184 41.18978881835938 184 92 C 184 142.8102111816406 142.8102111816406 184 92 184 C 41.18978881835938 184 0 142.8102111816406 0 92 C 0 41.18978881835938 41.18978881835938 0 92 0 Z" stroke="none" fill="#f6e2e0"/>
        </g>
        <text id="UI_Grids_Compositions" data-name="UI Grids
&amp;
Compositions" transform="translate(91.552 71.394)" fill="#fff" font-size="23" font-family="Optima-Bold, Optima" font-weight="700"><tspan x="-43.458" y="0">UI Grids</tspan><tspan x="-8.303" y="28">&amp;</tspan><tspan x="-68.391" y="56">Compositions</tspan></text>
      </g>
    </g>
    <g id="Group_2645" data-name="Group 2645" transform="translate(664 -119)">
      <g id="Group_2615-7" data-name="Group 2615" transform="translate(194 2902.934)">
        <g id="Ellipse_331-6" data-name="Ellipse 331" transform="translate(0 0.066)" fill="#536a7b" stroke="#f6e2e0" stroke-width="6">
          <circle cx="92" cy="92" r="92" stroke="none"/>
          <circle cx="92" cy="92" r="89" fill="none"/>
        </g>
        <text id="Interaction_Design_" data-name="Interaction
Design
" transform="translate(82 83.12)" fill="#fff" font-size="23" font-family="Optima-Bold, Optima" font-weight="700"><tspan x="-55.453" y="0">Interaction</tspan><tspan x="-34.512" y="28">Design</tspan><tspan x="0" y="56"></tspan></text>
      </g>
      <g id="Path_4856" data-name="Path 4856" transform="translate(478 2903)" fill="#536a7b">
        <path d="M 92 181 C 85.95950317382812 181 79.92368316650391 180.3916320800781 74.06021118164062 179.1917877197266 C 68.3472900390625 178.0227661132812 62.7278938293457 176.2783966064453 57.35810470581055 174.0071868896484 C 52.08513259887695 171.7769012451172 46.99913024902344 169.0162658691406 42.24134063720703 165.8019714355469 C 37.52799987792969 162.6177062988281 33.09568405151367 158.9606781005859 29.0674991607666 154.9324951171875 C 25.03931617736816 150.9043426513672 21.38231658935547 146.4720001220703 18.19802665710449 141.7586517333984 C 14.98373699188232 137.0009002685547 12.22310543060303 131.9148712158203 9.992841720581055 126.6418914794922 C 7.72160530090332 121.272102355957 5.977236747741699 115.6527099609375 4.808210372924805 109.9397888183594 C 3.608368396759033 104.0763168334961 3 98.04049682617188 3 92 C 3 85.95950317382812 3.608368396759033 79.92368316650391 4.808210372924805 74.06021118164062 C 5.977236747741699 68.3472900390625 7.72160530090332 62.7278938293457 9.992841720581055 57.35810470581055 C 12.22310543060303 52.08513259887695 14.98373699188232 46.99913024902344 18.19802665710449 42.24134063720703 C 21.38231658935547 37.52799987792969 25.03931617736816 33.09568405151367 29.0674991607666 29.0674991607666 C 33.09568405151367 25.03931617736816 37.52799987792969 21.38231658935547 42.24134063720703 18.19802665710449 C 46.99913024902344 14.98373699188232 52.08513259887695 12.22310543060303 57.35810470581055 9.992841720581055 C 62.7278938293457 7.72160530090332 68.3472900390625 5.977236747741699 74.06021118164062 4.808210372924805 C 79.92368316650391 3.608368396759033 85.95950317382812 3 92 3 C 98.04049682617188 3 104.0763168334961 3.608368396759033 109.9397888183594 4.808210372924805 C 115.6527099609375 5.977236747741699 121.272102355957 7.72160530090332 126.6418914794922 9.992841720581055 C 131.9148712158203 12.22310543060303 137.0009002685547 14.98373699188232 141.7586517333984 18.19802665710449 C 146.4720001220703 21.38231658935547 150.9043426513672 25.03931617736816 154.9324951171875 29.0674991607666 C 158.9606781005859 33.09568405151367 162.6177062988281 37.52799987792969 165.8019714355469 42.24134063720703 C 169.0162658691406 46.99913024902344 171.7769012451172 52.08513259887695 174.0071868896484 57.35810470581055 C 176.2783966064453 62.7278938293457 178.0227661132812 68.3472900390625 179.1917877197266 74.06021118164062 C 180.3916320800781 79.92368316650391 181 85.95950317382812 181 92 C 181 98.04049682617188 180.3916320800781 104.0763168334961 179.1917877197266 109.9397888183594 C 178.0227661132812 115.6527099609375 176.2783966064453 121.272102355957 174.0071868896484 126.6418914794922 C 171.7769012451172 131.9148712158203 169.0162658691406 137.0009002685547 165.8019714355469 141.7586517333984 C 162.6177062988281 146.4720001220703 158.9606781005859 150.9043426513672 154.9324951171875 154.9324951171875 C 150.9043426513672 158.9606781005859 146.4720001220703 162.6177062988281 141.7586517333984 165.8019714355469 C 137.0009002685547 169.0162658691406 131.9148712158203 171.7769012451172 126.6418914794922 174.0071868896484 C 121.272102355957 176.2783966064453 115.6527099609375 178.0227661132812 109.9397888183594 179.1917877197266 C 104.0763168334961 180.3916320800781 98.04049682617188 181 92 181 Z" stroke="none"/>
        <path d="M 92 6 C 44.57943725585938 6 6 44.57943725585938 6 92 C 6 139.4205627441406 44.57943725585938 178 92 178 C 139.4205627441406 178 178 139.4205627441406 178 92 C 178 44.57943725585938 139.4205627441406 6 92 6 M 92 0 C 142.8102111816406 0 184 41.18978881835938 184 92 C 184 142.8102111816406 142.8102111816406 184 92 184 C 41.18978881835938 184 0 142.8102111816406 0 92 C 0 41.18978881835938 41.18978881835938 0 92 0 Z" stroke="none" fill="#f6e2e0"/>
      </g>
      <text id="Story_boarding" data-name="Story
boarding" transform="translate(569 2989)" fill="#fff" font-size="23" font-family="Optima-Bold, Optima" font-weight="700"><tspan x="-26.197" y="0">Story</tspan><tspan x="-44.746" y="28">boarding</tspan></text>
      <g id="Path_4857" data-name="Path 4857" transform="translate(622 2903)" fill="#536a7b">
        <path d="M 92 181 C 85.95950317382812 181 79.92368316650391 180.3916320800781 74.06021118164062 179.1917877197266 C 68.3472900390625 178.0227661132812 62.7278938293457 176.2783966064453 57.35810470581055 174.0071868896484 C 52.08513259887695 171.7769012451172 46.99913024902344 169.0162658691406 42.24134063720703 165.8019714355469 C 37.52799987792969 162.6177062988281 33.09568405151367 158.9606781005859 29.0674991607666 154.9324951171875 C 25.03931617736816 150.9043426513672 21.38231658935547 146.4720001220703 18.19802665710449 141.7586517333984 C 14.98373699188232 137.0009002685547 12.22310543060303 131.9148712158203 9.992841720581055 126.6418914794922 C 7.72160530090332 121.272102355957 5.977236747741699 115.6527099609375 4.808210372924805 109.9397888183594 C 3.608368396759033 104.0763168334961 3 98.04049682617188 3 92 C 3 85.95950317382812 3.608368396759033 79.92368316650391 4.808210372924805 74.06021118164062 C 5.977236747741699 68.3472900390625 7.72160530090332 62.7278938293457 9.992841720581055 57.35810470581055 C 12.22310543060303 52.08513259887695 14.98373699188232 46.99913024902344 18.19802665710449 42.24134063720703 C 21.38231658935547 37.52799987792969 25.03931617736816 33.09568405151367 29.0674991607666 29.0674991607666 C 33.09568405151367 25.03931617736816 37.52799987792969 21.38231658935547 42.24134063720703 18.19802665710449 C 46.99913024902344 14.98373699188232 52.08513259887695 12.22310543060303 57.35810470581055 9.992841720581055 C 62.7278938293457 7.72160530090332 68.3472900390625 5.977236747741699 74.06021118164062 4.808210372924805 C 79.92368316650391 3.608368396759033 85.95950317382812 3 92 3 C 98.04049682617188 3 104.0763168334961 3.608368396759033 109.9397888183594 4.808210372924805 C 115.6527099609375 5.977236747741699 121.272102355957 7.72160530090332 126.6418914794922 9.992841720581055 C 131.9148712158203 12.22310543060303 137.0009002685547 14.98373699188232 141.7586517333984 18.19802665710449 C 146.4720001220703 21.38231658935547 150.9043426513672 25.03931617736816 154.9324951171875 29.0674991607666 C 158.9606781005859 33.09568405151367 162.6177062988281 37.52799987792969 165.8019714355469 42.24134063720703 C 169.0162658691406 46.99913024902344 171.7769012451172 52.08513259887695 174.0071868896484 57.35810470581055 C 176.2783966064453 62.7278938293457 178.0227661132812 68.3472900390625 179.1917877197266 74.06021118164062 C 180.3916320800781 79.92368316650391 181 85.95950317382812 181 92 C 181 98.04049682617188 180.3916320800781 104.0763168334961 179.1917877197266 109.9397888183594 C 178.0227661132812 115.6527099609375 176.2783966064453 121.272102355957 174.0071868896484 126.6418914794922 C 171.7769012451172 131.9148712158203 169.0162658691406 137.0009002685547 165.8019714355469 141.7586517333984 C 162.6177062988281 146.4720001220703 158.9606781005859 150.9043426513672 154.9324951171875 154.9324951171875 C 150.9043426513672 158.9606781005859 146.4720001220703 162.6177062988281 141.7586517333984 165.8019714355469 C 137.0009002685547 169.0162658691406 131.9148712158203 171.7769012451172 126.6418914794922 174.0071868896484 C 121.272102355957 176.2783966064453 115.6527099609375 178.0227661132812 109.9397888183594 179.1917877197266 C 104.0763168334961 180.3916320800781 98.04049682617188 181 92 181 Z" stroke="none"/>
        <path d="M 92 6 C 44.57943725585938 6 6 44.57943725585938 6 92 C 6 139.4205627441406 44.57943725585938 178 92 178 C 139.4205627441406 178 178 139.4205627441406 178 92 C 178 44.57943725585938 139.4205627441406 6 92 6 M 92 0 C 142.8102111816406 0 184 41.18978881835938 184 92 C 184 142.8102111816406 142.8102111816406 184 92 184 C 41.18978881835938 184 0 142.8102111816406 0 92 C 0 41.18978881835938 41.18978881835938 0 92 0 Z" stroke="none" fill="#f6e2e0"/>
      </g>
      <text id="Persona_Creation" data-name="Persona
Creation" transform="translate(714 2989)" fill="#fff" font-size="23" font-family="Optima-Bold, Optima" font-weight="700"><tspan x="-39.111" y="0">Persona</tspan><tspan x="-43.458" y="28">Creation</tspan></text>
      <g id="Group_2615-8" data-name="Group 2615" transform="translate(333.448 2902.934)">
        <g id="Ellipse_331-7" data-name="Ellipse 331" transform="translate(-0.448 0.066)" fill="#536a7b" stroke="#f6e2e0" stroke-width="6">
          <circle cx="92" cy="92" r="92" stroke="none"/>
          <circle cx="92" cy="92" r="89" fill="none"/>
        </g>
        <text id="Iconography" transform="translate(29.052 99.323)" fill="#fff" font-size="23" font-family="Optima-Bold, Optima" font-weight="700"><tspan x="0" y="0">Iconography</tspan></text>
      </g>
    </g>
  </g>
</svg>
