<svg xmlns="http://www.w3.org/2000/svg" width="608" height="184" viewBox="0 0 608 184">
  <g id="Group_2648" data-name="Group 2648" transform="translate(-174 -2241)">
    <g id="Group_2619" data-name="Group 2619" transform="translate(174 2240.934)">
      <g id="Ellipse_331" data-name="Ellipse 331" transform="translate(0 0.066)" fill="#536a7b" stroke="#f6e2e0" stroke-width="6">
        <circle cx="92" cy="92" r="92" stroke="none"/>
        <circle cx="92" cy="92" r="89" fill="none"/>
      </g>
      <text id="HTML" transform="translate(92 97.066)" fill="#fff" font-size="23" font-family="Optima-Bold, Optima" font-weight="700"><tspan x="-31.315" y="0">HTML</tspan></text>
    </g>
    <g id="Group_2617" data-name="Group 2617" transform="translate(458.473 2240.934)">
      <g id="Path_4853" data-name="Path 4853" transform="translate(-0.473 0.066)" fill="#536a7b">
        <path d="M 92 181 C 85.95950317382812 181 79.92368316650391 180.3916320800781 74.06021118164062 179.1917877197266 C 68.3472900390625 178.0227661132812 62.7278938293457 176.2783966064453 57.35810470581055 174.0071868896484 C 52.08513259887695 171.7769012451172 46.99913024902344 169.0162658691406 42.24134063720703 165.8019714355469 C 37.52799987792969 162.6177062988281 33.09568405151367 158.9606781005859 29.0674991607666 154.9324951171875 C 25.03931617736816 150.9043426513672 21.38231658935547 146.4720001220703 18.19802665710449 141.7586517333984 C 14.98373699188232 137.0009002685547 12.22310543060303 131.9148712158203 9.992841720581055 126.6418914794922 C 7.72160530090332 121.272102355957 5.977236747741699 115.6527099609375 4.808210372924805 109.9397888183594 C 3.608368396759033 104.0763168334961 3 98.04049682617188 3 92 C 3 85.95950317382812 3.608368396759033 79.92368316650391 4.808210372924805 74.06021118164062 C 5.977236747741699 68.3472900390625 7.72160530090332 62.7278938293457 9.992841720581055 57.35810470581055 C 12.22310543060303 52.08513259887695 14.98373699188232 46.99913024902344 18.19802665710449 42.24134063720703 C 21.38231658935547 37.52799987792969 25.03931617736816 33.09568405151367 29.0674991607666 29.0674991607666 C 33.09568405151367 25.03931617736816 37.52799987792969 21.38231658935547 42.24134063720703 18.19802665710449 C 46.99913024902344 14.98373699188232 52.08513259887695 12.22310543060303 57.35810470581055 9.992841720581055 C 62.7278938293457 7.72160530090332 68.3472900390625 5.977236747741699 74.06021118164062 4.808210372924805 C 79.92368316650391 3.608368396759033 85.95950317382812 3 92 3 C 98.04049682617188 3 104.0763168334961 3.608368396759033 109.9397888183594 4.808210372924805 C 115.6527099609375 5.977236747741699 121.272102355957 7.72160530090332 126.6418914794922 9.992841720581055 C 131.9148712158203 12.22310543060303 137.0009002685547 14.98373699188232 141.7586517333984 18.19802665710449 C 146.4720001220703 21.38231658935547 150.9043426513672 25.03931617736816 154.9324951171875 29.0674991607666 C 158.9606781005859 33.09568405151367 162.6177062988281 37.52799987792969 165.8019714355469 42.24134063720703 C 169.0162658691406 46.99913024902344 171.7769012451172 52.08513259887695 174.0071868896484 57.35810470581055 C 176.2783966064453 62.7278938293457 178.0227661132812 68.3472900390625 179.1917877197266 74.06021118164062 C 180.3916320800781 79.92368316650391 181 85.95950317382812 181 92 C 181 98.04049682617188 180.3916320800781 104.0763168334961 179.1917877197266 109.9397888183594 C 178.0227661132812 115.6527099609375 176.2783966064453 121.272102355957 174.0071868896484 126.6418914794922 C 171.7769012451172 131.9148712158203 169.0162658691406 137.0009002685547 165.8019714355469 141.7586517333984 C 162.6177062988281 146.4720001220703 158.9606781005859 150.9043426513672 154.9324951171875 154.9324951171875 C 150.9043426513672 158.9606781005859 146.4720001220703 162.6177062988281 141.7586517333984 165.8019714355469 C 137.0009002685547 169.0162658691406 131.9148712158203 171.7769012451172 126.6418914794922 174.0071868896484 C 121.272102355957 176.2783966064453 115.6527099609375 178.0227661132812 109.9397888183594 179.1917877197266 C 104.0763168334961 180.3916320800781 98.04049682617188 181 92 181 Z" stroke="none"/>
        <path d="M 92 6 C 44.57943725585938 6 6 44.57943725585938 6 92 C 6 139.4205627441406 44.57943725585938 178 92 178 C 139.4205627441406 178 178 139.4205627441406 178 92 C 178 44.57943725585938 139.4205627441406 6 92 6 M 92 0 C 142.8102111816406 0 184 41.18978881835938 184 92 C 184 142.8102111816406 142.8102111816406 184 92 184 C 41.18978881835938 184 0 142.8102111816406 0 92 C 0 41.18978881835938 41.18978881835938 0 92 0 Z" stroke="none" fill="#f6e2e0"/>
      </g>
      <text id="GitHub" transform="translate(54.027 100.066)" fill="#fff" font-size="23" font-family="Optima-Bold, Optima" font-weight="700"><tspan x="0" y="0">GitHub</tspan></text>
    </g>
    <g id="Group_2620" data-name="Group 2620" transform="translate(598.473 2240.934)">
      <g id="Ellipse_331-2" data-name="Ellipse 331" transform="translate(-0.473 0.066)" fill="#536a7b" stroke="#f6e2e0" stroke-width="6">
        <circle cx="92" cy="92" r="92" stroke="none"/>
        <circle cx="92" cy="92" r="89" fill="none"/>
      </g>
      <text id="Java_Script" data-name="Java Script" transform="translate(39.027 100.066)" fill="#fff" font-size="23" font-family="Optima-Bold, Optima" font-weight="700"><tspan x="0" y="0">Java Script</tspan></text>
    </g>
    <g id="Group_2618" data-name="Group 2618" transform="translate(313.448 2240.934)">
      <g id="Ellipse_331-3" data-name="Ellipse 331" transform="translate(-0.448 0.066)" fill="#536a7b" stroke="#f6e2e0" stroke-width="6">
        <circle cx="92" cy="92" r="92" stroke="none"/>
        <circle cx="92" cy="92" r="89" fill="none"/>
      </g>
      <text id="CSS" transform="translate(73.052 99.323)" fill="#fff" font-size="23" font-family="Optima-Bold, Optima" font-weight="700"><tspan x="0" y="0">CSS</tspan></text>
    </g>
  </g>
</svg>
